<svg width="491" height="167" viewBox="0 0 491 167" fill="none" xmlns="http://www.w3.org/2000/svg">
<rect width="491" height="167" fill="#e8532a"/>
<g transform="translate(28 18)">
<path d="M410.514 94.8507C405.401 94.8507 400.883 93.6949 396.96 91.3834C393.038 89.0019 389.956 85.7448 387.714 81.6121C385.543 77.4795 384.457 72.7164 384.457 67.3229C384.457 61.9295 385.543 57.1664 387.714 53.0337C389.956 48.9011 393.003 45.679 396.855 43.3675C400.778 40.986 405.26 39.7952 410.304 39.7952C415.207 39.7952 419.445 41.021 423.017 43.4726C426.589 45.8541 429.356 49.2163 431.317 53.5591C433.278 57.9019 434.259 63.0152 434.259 68.899H390.866L392.968 67.1128C392.968 71.3155 393.703 74.9228 395.174 77.9348C396.715 80.9467 398.851 83.2582 401.583 84.8692C404.315 86.4102 407.432 87.1807 410.934 87.1807C414.646 87.1807 417.763 86.3052 420.285 84.554C422.877 82.8029 424.873 80.4914 426.274 77.6196L433.524 81.2969C432.193 84.0287 430.407 86.4102 428.165 88.4415C425.994 90.4728 423.402 92.0488 420.39 93.1696C417.448 94.2903 414.156 94.8507 410.514 94.8507ZM393.493 63.5405L391.286 61.8594H427.535L425.328 63.6456C425.328 60.2834 424.663 57.3765 423.332 54.925C422.001 52.4734 420.215 50.5822 417.974 49.2513C415.732 47.9205 413.141 47.255 410.199 47.255C407.327 47.255 404.595 47.9205 402.003 49.2513C399.482 50.5822 397.415 52.4734 395.804 54.925C394.263 57.3065 393.493 60.1783 393.493 63.5405Z" fill="#ffffff"/>
<path d="M354.428 93.5898L375.862 41.056H384.687L362.728 93.5898H354.428ZM353.902 93.5898L331.943 41.056H340.664L362.098 93.5898H353.902Z" fill="#ffffff"/>
<path d="M322.177 93.5898L321.757 84.9743V65.852C321.757 61.7193 321.302 58.3221 320.391 55.6604C319.481 52.9287 318.045 50.8623 316.083 49.4614C314.122 48.0605 311.565 47.3601 308.413 47.3601C305.542 47.3601 303.055 47.9555 300.954 49.1462C298.922 50.267 297.241 52.0881 295.91 54.6098L288.346 51.6679C289.676 49.2163 291.287 47.1149 293.179 45.3638C295.07 43.5426 297.276 42.1768 299.798 41.2662C302.32 40.2855 305.191 39.7952 308.413 39.7952C313.317 39.7952 317.344 40.7759 320.496 42.7371C323.718 44.6283 326.135 47.4652 327.746 51.2476C329.357 54.96 330.127 59.583 330.057 65.1165L329.952 93.5898H322.177ZM306.417 94.8507C300.253 94.8507 295.42 93.4497 291.918 90.6479C288.486 87.7761 286.77 83.8186 286.77 78.7753C286.77 73.4519 288.521 69.3893 292.023 66.5875C295.595 63.7156 300.568 62.2797 306.943 62.2797H321.967V69.3192H308.834C303.931 69.3192 300.428 70.1247 298.327 71.7358C296.296 73.3468 295.28 75.6583 295.28 78.6702C295.28 81.402 296.296 83.5734 298.327 85.1844C300.358 86.7254 303.195 87.4959 306.837 87.4959C309.849 87.4959 312.476 86.8655 314.718 85.6047C316.959 84.2738 318.675 82.4177 319.866 80.0361C321.127 77.5845 321.757 74.7127 321.757 71.4206H325.329C325.329 78.5652 323.718 84.2738 320.496 88.5466C317.274 92.7493 312.581 94.8507 306.417 94.8507Z" fill="#ffffff"/>
<path d="M259.674 94.8507C254.561 94.8507 250.043 93.6949 246.12 91.3834C242.198 89.0019 239.116 85.7448 236.874 81.6121C234.703 77.4795 233.617 72.7164 233.617 67.3229C233.617 61.9295 234.703 57.1664 236.874 53.0337C239.116 48.9011 242.163 45.679 246.015 43.3675C249.938 40.986 254.421 39.7952 259.464 39.7952C264.367 39.7952 268.605 41.021 272.177 43.4726C275.749 45.8541 278.516 49.2163 280.477 53.5591C282.439 57.9019 283.419 63.0152 283.419 68.899H240.026L242.128 67.1128C242.128 71.3155 242.863 74.9228 244.334 77.9348C245.875 80.9467 248.011 83.2582 250.743 84.8692C253.475 86.4102 256.592 87.1807 260.094 87.1807C263.807 87.1807 266.924 86.3052 269.445 84.554C272.037 82.8029 274.033 80.4914 275.434 77.6196L282.684 81.2969C281.353 84.0287 279.567 86.4102 277.325 88.4415C275.154 90.4728 272.562 92.0488 269.55 93.1696C266.608 94.2903 263.316 94.8507 259.674 94.8507ZM242.653 63.5405L240.447 61.8594H276.695L274.488 63.6456C274.488 60.2834 273.823 57.3765 272.492 54.925C271.161 52.4734 269.375 50.5822 267.134 49.2513C264.892 47.9205 262.301 47.255 259.359 47.255C256.487 47.255 253.755 47.9205 251.163 49.2513C248.642 50.5822 246.576 52.4734 244.964 54.925C243.423 57.3065 242.653 60.1783 242.653 63.5405Z" fill="#ffffff"/>
<path d="M207.407 93.5898L225.164 41.056H233.674L215.813 93.5898H207.407ZM171.684 93.5898L189.441 41.056H197.321L179.774 93.5898H171.684ZM171.264 93.5898L153.402 41.056H161.913L179.459 93.5898H171.264ZM207.407 93.5898L189.861 41.056H197.846L215.392 93.5898H207.407Z" fill="#ffffff"/>
<path d="M27.9751 26.045C28.7432 47.5971 33.5388 67.3133 41.1255 83.0863C34.925 88.8185 27.8721 92.9023 20.2853 94.8879C10.5818 77.2791 4.56854 53.7789 4.34375 27.909C4.34375 27.4125 4.34375 26.1762 4.34375 26.045H27.9751Z" fill="#ffffff"/>
<path d="M60.6663 52.419C57.2569 61.8697 51.993 70.5055 46.2889 77.3336C39.8074 62.8719 35.4988 45.1132 34.4404 26.0433H56.8916C57.4162 35.2598 58.7087 44.1017 60.6663 52.419Z" fill="#ffffff"/>
<path d="M93.7195 26.0432C92.3521 50.7704 85.6645 72.8845 75.6143 89.1164C72.2331 94.5864 68.4678 99.3819 64.3934 103.381C62.6232 105.124 60.8061 106.716 58.9234 108.14C58.8579 108.186 58.7923 108.243 58.7268 108.289C48.0865 116.326 32.81 113.825 25.2138 102.866C24.4833 101.808 23.762 100.721 23.0596 99.5974C30.4684 97.3682 37.3901 93.3313 43.5438 87.8332C45.5202 86.0723 47.4215 84.1616 49.2292 82.101C54.5962 76.0316 59.1951 68.7445 62.8199 60.5489C67.3719 50.274 70.3785 38.5567 71.3995 26.0338H93.7102L93.7195 26.0432Z" fill="#ffffff"/>
<path d="M102.465 102.183C94.0258 112.776 79.6952 116.279 69.1674 108.149C68.9613 107.99 68.7647 107.831 68.5586 107.671C72.4082 104.112 76.0049 99.8784 79.3206 95.0641C91.0754 77.933 99.0274 53.4774 100.507 26.0433H124.148C123.689 54.7606 115.166 86.2597 102.465 102.192V102.183Z" fill="#ffffff"/>
</g>
</svg>
